# xmcd
#
# Track frame offsets:
#	150
#	15886
#	32504
#	50254
#	66197
#	78834
#	95164
#	108291
#	121476
#	130741
#	147294
#	162468
#	176271
#	198987
#	209992
#
# Disc length: 2979 seconds
#
# Revision: 0
# Processed by: cddbd v1.5.2PL0 Copyright (c) Steve Scherf et al.
# Submitted via: EasyCDDAExtractor 16.0.6.1
#
DISCID=ca0ba10f
DTITLE=Νταλάρας Γιώργος-Αλεξίου Χ.-Λαμπρόπουλος Π. - Πενήντα χρόνια ρεμπέτικο 
DTITLE=τραγούδι-Γ. Νταλάρας 2
DYEAR=1975
DGENRE=Ρεμπέτικη
TTITLE0=Ήρθ' ο χειμώνας [Π. Τούντας-Κ. Κοφινιώτης]
TTITLE1=Ο Μανώλης [Γιάννης Δραγάτσης]
TTITLE2=Γιοβάν Τσαούς [Γιάννης Εϊτζιρίδης]
TTITLE3=Όμορφη Πειραιώτισσα [Κ. Καπλάνης-Δ. Γκόγκος]
TTITLE4=Τα παιδιά της γειτονιάς σου [παραδ., διασκ. Στέλ. Βαμβακάρης]
TTITLE5=Παραπονιάρικο [Απ. Χατζηχρήστος-Γ. Λελάκης]
TTITLE6=Πέφτεις σε λάθη [Βασίλης Τσιτσάνης]
TTITLE7=Ο Κάβουρας [Μάρκος Βαμβακάρης]
TTITLE8=Ανεμόσκαλα θα δέσω [Στέλ. Βαμβακάρης-Δ. Γκούτης]
TTITLE9=Βαρβάκειο [Π. Τσαουσάκης-Σ. Τσιλιβερδής]
TTITLE10=Για σένα μαυρομάτα μου [Μάρκος Βαμβακάρης]
TTITLE11=Το σχολείο [Γιώργος Μουφλουζέλης]
TTITLE12=Ο Πίκινος [Κώστας Ρούκουνας]
TTITLE13=Τα νέα της Αλεξάνδρας (Το τάβλι)[Κώστας Γιαννίδης]
TTITLE14=Ρίξε τσιγγάνα τα χαρτιά [Μ. Βαμβακάρης-Γ. Φωτίδας]
EXTD=
EXTT0=
EXTT1=
EXTT2=
EXTT3=
EXTT4=
EXTT5=
EXTT6=
EXTT7=
EXTT8=
EXTT9=
EXTT10=
EXTT11=
EXTT12=
EXTT13=
EXTT14=
PLAYORDER=
